# xmcd
#
# Track frame offsets: 
#        150
#        20305
#        36675
#        52335
#        70069
#        87689
#        105221
#        120298
#        133707
#        145776
#        160796
#        175371
#        189213
#        205765
#        221899
#        246672
#
# Disc length: 4330 seconds
#
# Revision: 12
# Processed by: cddbd v1.5.2PL0 Copyright (c) Steve Scherf et al.
# Submitted via: ExactAudioCopy v0.99pb5
#
DISCID=ed10e810
DTITLE=Johnny Cash - American IV: The Man Comes Around - Limited
DYEAR=2002
DGENRE=Country
TTITLE0=The Man Comes Around
TTITLE1=Hurt
TTITLE2=Give My Love To Rose
TTITLE3=Bridge Over Troubled Water
TTITLE4=I Hung My Head
TTITLE5=First Time Ever I Saw Your Face
TTITLE6=Personal Jesus
TTITLE7=In My Life
TTITLE8=Sam Hall
TTITLE9=Danny Boy
TTITLE10=Desperado
TTITLE11=I'm So Lonesome I Could Cry
TTITLE12=Tear Stained Letter
TTITLE13=Streets Of Laredo
TTITLE14=We'll Meet Again
TTITLE15=Hurt (mpg-Video)
EXTD=Limited Edition With Bonus-Interview-Disc.\n170 368-2\n YEAR: 200
EXTD=2
EXTT0=Written by John R. Cash
EXTT1=Written by Trent Reznor
EXTT2=Written by John R. Cash
EXTT3=Written by Paul Simon
EXTT4=Written by Sting (Gordon Matthew Thomas Sumner)
EXTT5=Written by Ewan MacColl
EXTT6=Written by Martin Lee Gore
EXTT7=Written by John Lennon and Paul McCartney
EXTT8=Writer unknown - arranged by John R. Cash
EXTT9=Written by Frederick Weatherly - arranged by John R. Cash
EXTT10=Written by Glenn Frey and Don Henley
EXTT11=Written by Hank Williams
EXTT12=Written by John R. Cash
EXTT13=Traditional - arranged and adapted by John R. Cash
EXTT14=Written by Ross Parker and Hugh Charles
EXTT15=Hurt Video directed by Mark Romanek (audio-track: Hurt)
PLAYORDER=
